<svg width="257" height="88" viewBox="0 0 257 88" fill="none" xmlns="http://www.w3.org/2000/svg">
<path d="M126.888 38.544V74H117.864V69.52C116.712 71.056 115.197 72.272 113.32 73.168C111.485 74.0213 109.48 74.448 107.304 74.448C104.531 74.448 102.077 73.872 99.944 72.72C97.8107 71.5253 96.1253 69.7973 94.888 67.536C93.6933 65.232 93.096 62.5013 93.096 59.344V38.544H102.056V58.064C102.056 60.88 102.76 63.056 104.168 64.592C105.576 66.0853 107.496 66.832 109.928 66.832C112.403 66.832 114.344 66.0853 115.752 64.592C117.16 63.056 117.864 60.88 117.864 58.064V38.544H126.888ZM149.297 74.576C146.395 74.576 143.793 74.064 141.489 73.04C139.185 71.9733 137.35 70.544 135.985 68.752C134.662 66.96 133.937 64.976 133.809 62.8H142.833C143.003 64.1653 143.665 65.296 144.817 66.192C146.011 67.088 147.483 67.536 149.233 67.536C150.939 67.536 152.262 67.1947 153.201 66.512C154.182 65.8293 154.673 64.9547 154.673 63.888C154.673 62.736 154.075 61.8827 152.881 61.328C151.729 60.7307 149.873 60.0907 147.312 59.408C144.667 58.768 142.491 58.1067 140.785 57.424C139.121 56.7413 137.67 55.696 136.433 54.288C135.238 52.88 134.641 50.9813 134.641 48.592C134.641 46.6293 135.195 44.8373 136.305 43.216C137.457 41.5947 139.078 40.3147 141.169 39.376C143.302 38.4373 145.798 37.968 148.657 37.968C152.881 37.968 156.251 39.0347 158.769 41.168C161.286 43.2587 162.673 46.096 162.929 49.68H154.353C154.225 48.272 153.627 47.1627 152.561 46.352C151.537 45.4987 150.15 45.072 148.401 45.072C146.779 45.072 145.521 45.3707 144.625 45.968C143.771 46.5653 143.345 47.3973 143.345 48.464C143.345 49.6587 143.942 50.576 145.137 51.216C146.331 51.8133 148.187 52.432 150.705 53.072C153.265 53.712 155.377 54.3733 157.041 55.056C158.705 55.7387 160.134 56.8053 161.329 58.256C162.566 59.664 163.206 61.5413 163.249 63.888C163.249 65.936 162.673 67.7707 161.521 69.392C160.411 71.0133 158.79 72.2933 156.657 73.232C154.566 74.128 152.113 74.576 149.297 74.576ZM175.148 34.32C173.569 34.32 172.246 33.8293 171.18 32.848C170.156 31.824 169.644 30.5653 169.644 29.072C169.644 27.5787 170.156 26.3413 171.18 25.36C172.246 24.336 173.569 23.824 175.148 23.824C176.726 23.824 178.028 24.336 179.052 25.36C180.118 26.3413 180.652 27.5787 180.652 29.072C180.652 30.5653 180.118 31.824 179.052 32.848C178.028 33.8293 176.726 34.32 175.148 34.32ZM179.564 38.544V74H170.604V38.544H179.564ZM221.888 38.544V74H212.864V69.52C211.712 71.056 210.197 72.272 208.32 73.168C206.485 74.0213 204.48 74.448 202.304 74.448C199.531 74.448 197.077 73.872 194.944 72.72C192.811 71.5253 191.125 69.7973 189.888 67.536C188.693 65.232 188.096 62.5013 188.096 59.344V38.544H197.056V58.064C197.056 60.88 197.76 63.056 199.168 64.592C200.576 66.0853 202.496 66.832 204.928 66.832C207.403 66.832 209.344 66.0853 210.752 64.592C212.16 63.056 212.864 60.88 212.864 58.064V38.544H221.888ZM239.689 44.048C240.841 42.1707 242.334 40.6987 244.169 39.632C246.046 38.5653 248.179 38.032 250.569 38.032V47.44H248.201C245.385 47.44 243.251 48.1013 241.801 49.424C240.393 50.7467 239.689 53.0507 239.689 56.336V74H230.729V38.544H239.689V44.048Z" fill="#FF8A00"/>
<circle cx="44" cy="44" r="44" fill="#FECC1A"/>
<path d="M25.8636 74V39.0909H35.0909V45.25H35.5C36.2273 43.2045 37.4394 41.5909 39.1364 40.4091C40.8333 39.2273 42.8636 38.6364 45.2273 38.6364C47.6212 38.6364 49.6591 39.2348 51.3409 40.4318C53.0227 41.6136 54.1439 43.2197 54.7045 45.25H55.0682C55.7803 43.25 57.0682 41.6515 58.9318 40.4545C60.8106 39.2424 63.0303 38.6364 65.5909 38.6364C68.8485 38.6364 71.4924 39.6742 73.5227 41.75C75.5682 43.8106 76.5909 46.7348 76.5909 50.5227V74H66.9318V52.4318C66.9318 50.4924 66.4167 49.0379 65.3864 48.0682C64.3561 47.0985 63.0682 46.6136 61.5227 46.6136C59.7652 46.6136 58.3939 47.1742 57.4091 48.2955C56.4242 49.4015 55.9318 50.8636 55.9318 52.6818V74H46.5455V52.2273C46.5455 50.5152 46.053 49.1515 45.0682 48.1364C44.0985 47.1212 42.8182 46.6136 41.2273 46.6136C40.1515 46.6136 39.1818 46.8864 38.3182 47.4318C37.4697 47.9621 36.7955 48.7121 36.2955 49.6818C35.7955 50.6364 35.5455 51.7576 35.5455 53.0455V74H25.8636Z" fill="black"/>
</svg>
