<svg width="88" height="88" viewBox="0 0 88 88" fill="none" xmlns="http://www.w3.org/2000/svg">
<circle cx="44" cy="44" r="44" fill="#FECC1A"/>
<path d="M25.8636 74V39.0909H35.0909V45.25H35.5C36.2273 43.2045 37.4394 41.5909 39.1364 40.4091C40.8333 39.2273 42.8636 38.6364 45.2273 38.6364C47.6212 38.6364 49.6591 39.2348 51.3409 40.4318C53.0227 41.6136 54.1439 43.2197 54.7045 45.25H55.0682C55.7803 43.25 57.0682 41.6515 58.9318 40.4545C60.8106 39.2424 63.0303 38.6364 65.5909 38.6364C68.8485 38.6364 71.4924 39.6742 73.5227 41.75C75.5682 43.8106 76.5909 46.7348 76.5909 50.5227V74H66.9318V52.4318C66.9318 50.4924 66.4167 49.0379 65.3864 48.0682C64.3561 47.0985 63.0682 46.6136 61.5227 46.6136C59.7652 46.6136 58.3939 47.1742 57.4091 48.2955C56.4242 49.4015 55.9318 50.8636 55.9318 52.6818V74H46.5455V52.2273C46.5455 50.5152 46.053 49.1515 45.0682 48.1364C44.0985 47.1212 42.8182 46.6136 41.2273 46.6136C40.1515 46.6136 39.1818 46.8864 38.3182 47.4318C37.4697 47.9621 36.7955 48.7121 36.2955 49.6818C35.7955 50.6364 35.5455 51.7576 35.5455 53.0455V74H25.8636Z" fill="black"/>
</svg>
