<svg width="42" height="41" viewBox="0 0 42 41" fill="none" xmlns="http://www.w3.org/2000/svg">
<path d="M15.5583 39.9987V35.7519C14.615 35.8698 12.5161 36.035 11.6671 35.7519C10.6058 35.398 9.19082 34.8671 8.66019 33.4515C8.12956 32.0359 7.59893 31.1511 6.53768 30.4433C5.47642 29.7355 5.29955 29.2047 6.3608 29.0277C7.42206 28.8508 10.0752 30.7972 10.6058 32.2128C11.0303 33.3453 12.1977 33.5105 12.7283 33.4515H14.674C15.0867 33.4515 15.9121 33.2745 15.9121 32.5667C15.9121 31.8589 16.6196 30.6203 16.9734 30.0894C11.0303 29.3816 8.71915 25.6656 8.30644 23.8961C6.60843 18.9415 8.77811 15.3435 10.0752 14.1638C9.22619 12.3235 9.48561 9.62206 9.72144 8.50137C12.8345 8.35981 15.0277 9.858 15.7352 10.6248C20.1217 8.92605 24.5201 10.0349 26.1709 10.8017C28.5764 8.67832 31.1824 8.3834 32.1847 8.50137C33.0337 9.91698 32.5384 12.8662 32.1847 14.1638C35.0147 17.8798 34.6609 20.888 33.4228 25.1348C32.4323 28.5322 27.3501 29.8535 24.9328 30.0894C26.0648 30.6557 26.2299 32.3308 26.1709 33.0976V39.9987C26.1709 41.1312 27.5859 41.0604 28.2934 40.8835C36.2528 36.9905 38.3753 32.7437 39.0828 31.682C39.7903 30.6203 44.566 21.4188 40.1441 12.0404C35.7222 2.66199 27.409 -0.169232 20.5109 0.00771889C13.6127 0.18467 9.19082 3.19284 4.9458 7.26272C0.700777 11.3326 -1.42173 19.4724 1.05453 27.966C3.53079 36.4597 12.5515 40.3526 14.1433 40.8835C15.4168 41.3081 15.6173 40.4706 15.5583 39.9987Z" fill="#9E9E9E"/>
</svg>
