<svg width="43" height="42" viewBox="0 0 43 42" fill="none" xmlns="http://www.w3.org/2000/svg">
<path fill-rule="evenodd" clip-rule="evenodd" d="M21 0C9.40202 0 0 9.40202 0 21C0 32.598 9.40202 42 21 42H22C33.598 42 43 32.598 43 21C43 9.40202 33.598 0 22 0H21ZM10.368 12.456C10.9867 13.0107 11.776 13.288 12.736 13.288C13.6747 13.288 14.4427 13.0107 15.04 12.456C15.6587 11.88 15.968 11.176 15.968 10.344C15.968 9.49067 15.6587 8.78667 15.04 8.232C14.4427 7.656 13.6747 7.368 12.736 7.368C11.776 7.368 10.9867 7.656 10.368 8.232C9.77067 8.78667 9.472 9.49067 9.472 10.344C9.472 11.176 9.77067 11.88 10.368 12.456ZM15.456 33V15.144H9.984V33H15.456ZM35.2935 17C34.0562 15.6347 32.3922 14.952 30.3015 14.952C29.1282 14.952 28.0722 15.1867 27.1335 15.656C26.1948 16.104 25.4482 16.7227 24.8935 17.512V15.144H19.4215V33H24.8935V23.304C24.8935 22.1093 25.2028 21.1813 25.8215 20.52C26.4402 19.8587 27.2722 19.528 28.3175 19.528C29.3628 19.528 30.1948 19.8587 30.8135 20.52C31.4322 21.1813 31.7415 22.1093 31.7415 23.304V33H37.1815V22.568C37.1815 20.2 36.5522 18.344 35.2935 17Z" fill="#9E9E9E"/>
</svg>
