<svg width="13" height="17" viewBox="0 0 13 17" fill="none" xmlns="http://www.w3.org/2000/svg">
<mask id="path-1-inside-1_4_87" fill="white">
<path fill-rule="evenodd" clip-rule="evenodd" d="M3 0C1.34315 0 0 1.34315 0 3V14C0 15.6569 1.34315 17 3 17H9.89655C11.5534 17 12.8966 15.6569 12.8966 14V3C12.8966 1.34315 11.5534 0 9.89655 0H3ZM10.5518 7.84609H2.34487V8.56758H10.5518V7.84609ZM2.34487 5.68166H10.5518V6.40315H2.34487V5.68166ZM10.5517 3.51728H2.34484V4.23877H10.5517V3.51728ZM2.34487 12.1751H10.5518V12.8966H2.34487V12.1751ZM10.5518 10.0105H2.34487V10.732H10.5518V10.0105Z"/>
</mask>
<path d="M2.34487 7.84609V7.34609H1.84487V7.84609H2.34487ZM10.5518 7.84609H11.0518V7.34609H10.5518V7.84609ZM2.34487 8.56758H1.84487V9.06758H2.34487V8.56758ZM10.5518 8.56758V9.06758H11.0518V8.56758H10.5518ZM10.5518 5.68166H11.0518V5.18166H10.5518V5.68166ZM2.34487 5.68166V5.18166H1.84487V5.68166H2.34487ZM10.5518 6.40315V6.90315H11.0518V6.40315H10.5518ZM2.34487 6.40315H1.84487V6.90315H2.34487V6.40315ZM2.34484 3.51728V3.01728H1.84484V3.51728H2.34484ZM10.5517 3.51728H11.0517V3.01728H10.5517V3.51728ZM2.34484 4.23877H1.84484V4.73877H2.34484V4.23877ZM10.5517 4.23877V4.73877H11.0517V4.23877H10.5517ZM10.5518 12.1751H11.0518V11.6751H10.5518V12.1751ZM2.34487 12.1751V11.6751H1.84487V12.1751H2.34487ZM10.5518 12.8966V13.3966H11.0518V12.8966H10.5518ZM2.34487 12.8966H1.84487V13.3966H2.34487V12.8966ZM2.34487 10.0105V9.51052H1.84487V10.0105H2.34487ZM10.5518 10.0105H11.0518V9.51052H10.5518V10.0105ZM2.34487 10.732H1.84487V11.232H2.34487V10.732ZM10.5518 10.732V11.232H11.0518V10.732H10.5518ZM0.5 3C0.5 1.61929 1.61929 0.5 3 0.5V-0.5C1.067 -0.5 -0.5 1.067 -0.5 3H0.5ZM0.5 14V3H-0.5V14H0.5ZM3 16.5C1.61929 16.5 0.5 15.3807 0.5 14H-0.5C-0.5 15.933 1.067 17.5 3 17.5V16.5ZM9.89655 16.5H3V17.5H9.89655V16.5ZM12.3966 14C12.3966 15.3807 11.2773 16.5 9.89655 16.5V17.5C11.8295 17.5 13.3966 15.933 13.3966 14H12.3966ZM12.3966 3V14H13.3966V3H12.3966ZM9.89655 0.5C11.2773 0.5 12.3966 1.61929 12.3966 3H13.3966C13.3966 1.067 11.8295 -0.5 9.89655 -0.5V0.5ZM3 0.5H9.89655V-0.5H3V0.5ZM2.34487 8.34609H10.5518V7.34609H2.34487V8.34609ZM2.84487 8.56758V7.84609H1.84487V8.56758H2.84487ZM10.5518 8.06758H2.34487V9.06758H10.5518V8.06758ZM10.0518 7.84609V8.56758H11.0518V7.84609H10.0518ZM10.5518 5.18166H2.34487V6.18166H10.5518V5.18166ZM11.0518 6.40315V5.68166H10.0518V6.40315H11.0518ZM2.34487 6.90315H10.5518V5.90315H2.34487V6.90315ZM1.84487 5.68166V6.40315H2.84487V5.68166H1.84487ZM2.34484 4.01728H10.5517V3.01728H2.34484V4.01728ZM2.84484 4.23877V3.51728H1.84484V4.23877H2.84484ZM10.5517 3.73877H2.34484V4.73877H10.5517V3.73877ZM10.0517 3.51728V4.23877H11.0517V3.51728H10.0517ZM10.5518 11.6751H2.34487V12.6751H10.5518V11.6751ZM11.0518 12.8966V12.1751H10.0518V12.8966H11.0518ZM2.34487 13.3966H10.5518V12.3966H2.34487V13.3966ZM1.84487 12.1751V12.8966H2.84487V12.1751H1.84487ZM2.34487 10.5105H10.5518V9.51052H2.34487V10.5105ZM2.84487 10.732V10.0105H1.84487V10.732H2.84487ZM10.5518 10.232H2.34487V11.232H10.5518V10.232ZM10.0518 10.0105V10.732H11.0518V10.0105H10.0518Z" fill="#777E90" mask="url(#path-1-inside-1_4_87)"/>
</svg>
