<svg width="19" height="18" viewBox="0 0 19 18" fill="none" xmlns="http://www.w3.org/2000/svg">
<rect x="17.0815" y="6.81974" width="7.5" height="15.5" rx="1.75" transform="rotate(82.7098 17.0815 6.81974)" fill="white" stroke="#777E90" stroke-width="0.5"/>
<rect x="11.0925" y="0.353483" width="7.5" height="15.5" rx="1.75" transform="rotate(43.8553 11.0925 0.353483)" fill="white" stroke="#777E90" stroke-width="0.5"/>
<rect x="0.677124" y="0.790039" width="7.5" height="15.5" rx="1.75" fill="white" stroke="#777E90" stroke-width="0.5"/>
<path d="M2.3172 14.1382V14.4607" stroke="#777E90" stroke-width="0.5" stroke-linecap="round"/>
<path d="M3.19879 14.5264C3.23714 14.4481 3.22263 14.3541 3.22263 14.2682C3.22263 14.2211 3.23057 14.1741 3.23057 14.1292" stroke="#777E90" stroke-width="0.5" stroke-linecap="round"/>
<path d="M3.92186 14.5026C3.90957 14.4253 3.9457 14.3586 3.9457 14.284C3.9457 14.243 3.9457 14.2019 3.9457 14.1609" stroke="#777E90" stroke-width="0.5" stroke-linecap="round"/>
<path d="M4.58936 14.1052V14.5343" stroke="#777E90" stroke-width="0.5" stroke-linecap="round"/>
<path d="M5.3839 14.5503C5.36849 14.4155 5.37595 14.2776 5.37595 14.142C5.37595 14.1014 5.39184 14.0652 5.39184 14.0259" stroke="#777E90" stroke-width="0.5" stroke-linecap="round"/>
<path d="M6.09906 14.5026C6.10179 14.4071 6.11495 14.3145 6.11495 14.2183C6.11495 14.17 6.11495 14.1217 6.11495 14.0735" stroke="#777E90" stroke-width="0.5" stroke-linecap="round"/>
<path d="M6.84595 14.4866C6.85797 14.4118 6.86332 14.3359 6.86934 14.2606C6.8712 14.2374 6.87773 14.2158 6.87773 14.1926" stroke="#777E90" stroke-width="0.5" stroke-linecap="round"/>
<path d="M11.6609 3.56006C11.8575 3.63679 11.9737 3.82506 12.1683 3.90738C12.3203 3.97169 12.4574 4.08905 12.5889 4.18959C12.7077 4.28042 12.8055 4.43334 12.9308 4.50706C13.0045 4.55042 13.1289 4.66308 13.175 4.73228" stroke="#777E90" stroke-width="0.5" stroke-linecap="round"/>
<path d="M15.6904 9.37231C15.8361 9.57873 15.8454 9.85334 15.9454 10.0819C15.994 10.1929 15.9775 10.356 16.0133 10.4767C16.0291 10.5302 16.0323 10.5742 16.0323 10.63C16.0323 10.6946 16.0856 10.7534 16.1055 10.8132" stroke="#777E90" stroke-width="0.5" stroke-linecap="round"/>
<path d="M3.13782 2.2412C3.59621 2.17905 4.08243 2.19236 4.54476 2.19236C4.8247 2.19236 5.10464 2.19236 5.38458 2.19236" stroke="#777E90" stroke-width="0.5" stroke-linecap="round"/>
</svg>
