<svg width="16" height="18" viewBox="0 0 16 18" fill="none" xmlns="http://www.w3.org/2000/svg">
<mask id="path-1-inside-1_4_69" fill="white">
<path fill-rule="evenodd" clip-rule="evenodd" d="M10.0932 8.80874C11.5411 8.00895 12.5217 6.46682 12.5217 4.69565C12.5217 2.10231 10.4194 0 7.82609 0C5.23275 0 3.13043 2.10231 3.13043 4.69565C3.13043 6.46682 4.11105 8.00895 5.55898 8.80874C2.34224 9.39194 0 11.184 0 13.3043C0 15.8977 3.50386 18 7.82609 18C12.1483 18 15.6522 15.8977 15.6522 13.3043C15.6522 11.184 13.3099 9.39194 10.0932 8.80874Z"/>
</mask>
<path d="M10.0932 8.80874L9.85144 8.37107L8.62202 9.05017L10.004 9.30072L10.0932 8.80874ZM5.55898 8.80874L5.64817 9.30072L7.03015 9.05017L5.80073 8.37107L5.55898 8.80874ZM12.0217 4.69565C12.0217 6.27756 11.1465 7.65573 9.85144 8.37107L10.335 9.24641C11.9358 8.36217 13.0217 6.65608 13.0217 4.69565H12.0217ZM7.82609 0.5C10.1433 0.5 12.0217 2.37846 12.0217 4.69565H13.0217C13.0217 1.82617 10.6956 -0.5 7.82609 -0.5V0.5ZM3.63043 4.69565C3.63043 2.37846 5.50889 0.5 7.82609 0.5V-0.5C4.95661 -0.5 2.63043 1.82617 2.63043 4.69565H3.63043ZM5.80073 8.37107C4.50569 7.65573 3.63043 6.27756 3.63043 4.69565H2.63043C2.63043 6.65608 3.71641 8.36217 5.31722 9.24641L5.80073 8.37107ZM0.5 13.3043C0.5 12.4427 0.974603 11.5955 1.88455 10.8714C2.79389 10.1477 4.10183 9.58108 5.64817 9.30072L5.46978 8.31676C3.79938 8.61961 2.32784 9.24061 1.26187 10.0889C0.196516 10.9367 -0.5 12.0457 -0.5 13.3043H0.5ZM7.82609 17.5C5.74001 17.5 3.87564 16.9916 2.54946 16.1959C1.21332 15.3942 0.5 14.3564 0.5 13.3043H-0.5C-0.5 14.8456 0.538607 16.1556 2.03496 17.0534C3.54127 17.9572 5.58993 18.5 7.82609 18.5V17.5ZM15.1522 13.3043C15.1522 14.3564 14.4389 15.3942 13.1027 16.1959C11.7765 16.9916 9.91216 17.5 7.82609 17.5V18.5C10.0622 18.5 12.1109 17.9572 13.6172 17.0534C15.1136 16.1556 16.1522 14.8456 16.1522 13.3043H15.1522ZM10.004 9.30072C11.5503 9.58108 12.8583 10.1477 13.7676 10.8714C14.6776 11.5955 15.1522 12.4427 15.1522 13.3043H16.1522C16.1522 12.0457 15.4557 10.9367 14.3903 10.0889C13.3243 9.24061 11.8528 8.61961 10.1824 8.31676L10.004 9.30072Z" fill="#777E90" mask="url(#path-1-inside-1_4_69)"/>
</svg>
