<svg width="1440" height="823" viewBox="0 0 1440 823" fill="none" xmlns="http://www.w3.org/2000/svg">
<rect width="1440" height="823" fill="url(#paint0_linear_53_3)"/>
<path fill-rule="evenodd" clip-rule="evenodd" d="M1020.26 322.567C1041.96 314.846 1053.29 290.994 1045.57 269.293C1037.85 247.592 1013.99 236.26 992.293 243.981C970.592 251.703 959.26 275.554 966.981 297.255C974.703 318.956 998.554 330.289 1020.26 322.567ZM979.489 267.964L995.655 313.398L1000.1 311.818L988.377 278.882L1042.2 304.069L1042.61 303.211L979.489 267.964ZM1021.04 287.241L1010.28 257.008L1014.13 255.638L1026.45 290.263L1021.04 287.241Z" fill="white" fill-opacity="0.3"/>
<path fill-rule="evenodd" clip-rule="evenodd" d="M1282.89 253.747C1284.03 257.363 1289.71 263.804 1303.39 260.64C1319.02 257.026 1323.77 251.245 1326.04 248.484C1326.26 248.224 1326.45 247.99 1326.63 247.788C1328.68 245.44 1332.47 234.722 1330.79 230.804C1329.11 226.887 1324.09 216.527 1299.58 221.051C1275.07 225.576 1260.72 243.633 1258.47 247.838C1256.21 252.043 1251.49 262.312 1262.72 269.569C1271.71 275.376 1277.55 280.176 1279.36 281.85C1271.22 285.522 1256.18 295.443 1261.15 305.758C1267.36 318.652 1284.08 304.038 1284.75 302.174C1284.83 301.946 1284.98 301.608 1285.17 301.176C1286.55 298.087 1290.06 290.178 1286.09 282.913L1292.99 278.873C1291.01 286.088 1289.26 300.208 1298.15 298.968C1299.77 298.713 1303.58 296.247 1305.88 288.425C1305.78 292.522 1306.83 299.725 1311.78 295.759L1324.18 271.007C1324.2 272.629 1324.96 276.93 1327.8 281.155C1323.91 284.998 1316.84 293.136 1319.65 294.951C1322.46 296.765 1328.52 293.741 1331.2 292.003C1333.26 290.35 1336.53 285.574 1333.11 279.688L1340.35 267.529C1340.62 269.689 1341.57 274.42 1343.26 276.065C1340.37 279.507 1335.02 287.08 1336.73 289.837C1338.44 292.595 1343.77 290.123 1346.22 288.542C1348.67 286.884 1352.81 282.281 1349.77 277.131C1353.22 275.227 1362.13 272.688 1370.18 277.766C1378.22 282.843 1372.27 289.018 1368.29 291.471C1370.3 291.597 1374.62 290.499 1375.85 285.103C1377.07 279.707 1372.54 275.182 1370.12 273.594C1365.91 271.101 1355.66 267.675 1348.33 273.906C1346.36 271.384 1343.56 264.562 1348.09 257.449L1341.14 257.549L1331.43 275.771C1329.46 272.786 1326.42 265.689 1330.06 261.185L1324.03 260.808L1312.15 289.03C1311.39 290.046 1310.22 290.588 1311.62 284.633C1311.99 283.047 1312.45 281.503 1312.87 280.077C1314.43 274.808 1315.51 271.161 1310.06 273.064C1310.68 267.491 1308.67 259.591 1295.68 272.574L1283.73 279.701C1278.49 275.603 1267.4 266.257 1264.92 261.655C1263.34 259.128 1262.47 252.185 1271.64 244.635C1277.13 239.92 1290.21 230.227 1298.54 229.18C1299.64 229.041 1300.8 228.881 1301.99 228.716C1312.01 227.329 1324.15 225.649 1323.65 234.152C1323.09 243.666 1320.37 248.341 1304.25 255.759C1299.17 257.378 1287.79 259.241 1282.89 253.747ZM1304.63 276.793C1305.97 272.987 1307 267.208 1300.43 274.535C1292.21 283.694 1297.22 293.36 1298.59 291.949C1299.69 290.821 1303.07 281.375 1304.63 276.793ZM1281.1 285.013C1274.74 288.582 1263.06 297.281 1267.23 303.527C1272.44 311.335 1286.96 289.102 1281.11 285.476L1281.1 285.013ZM1322.71 292.299L1328.63 285.259C1328.34 286.422 1327.48 289.031 1326.38 290.16C1325.29 291.288 1323.47 292.056 1322.71 292.299ZM1344.09 279.705C1342.34 281.739 1339.03 286.176 1339.79 287.649C1340.75 289.49 1346.9 282.215 1344.09 279.705Z" fill="#CD6799" fill-opacity="0.3"/>
<g opacity="0.2">
<rect x="1075" y="385" width="115.681" height="111.144" rx="11" fill="#FECC1A"/>
<path d="M1114.69 427.674H1124.42V460.128C1124.42 463.128 1123.75 465.734 1122.4 467.946C1121.06 470.158 1119.21 471.863 1116.83 473.06C1114.45 474.257 1111.69 474.855 1108.53 474.855C1105.73 474.855 1103.19 474.363 1100.9 473.378C1098.63 472.378 1096.82 470.863 1095.49 468.833C1094.16 466.787 1093.5 464.219 1093.51 461.128H1103.31C1103.34 462.355 1103.59 463.408 1104.06 464.287C1104.54 465.151 1105.2 465.817 1106.03 466.287C1106.88 466.742 1107.88 466.969 1109.03 466.969C1110.25 466.969 1111.27 466.711 1112.1 466.196C1112.95 465.666 1113.6 464.893 1114.03 463.878C1114.47 462.863 1114.69 461.613 1114.69 460.128V427.674ZM1157.81 441.06C1157.63 439.227 1156.85 437.802 1155.47 436.787C1154.09 435.772 1152.22 435.264 1149.85 435.264C1148.25 435.264 1146.89 435.492 1145.78 435.946C1144.68 436.386 1143.83 436.999 1143.24 437.787C1142.66 438.575 1142.38 439.469 1142.38 440.469C1142.35 441.302 1142.52 442.03 1142.9 442.651C1143.29 443.272 1143.83 443.81 1144.51 444.264C1145.19 444.704 1145.98 445.09 1146.88 445.424C1147.77 445.742 1148.72 446.014 1149.74 446.242L1153.92 447.242C1155.95 447.696 1157.81 448.302 1159.51 449.06C1161.21 449.817 1162.68 450.749 1163.92 451.855C1165.16 452.961 1166.13 454.264 1166.81 455.764C1167.5 457.264 1167.86 458.984 1167.88 460.924C1167.86 463.772 1167.13 466.242 1165.69 468.333C1164.27 470.408 1162.21 472.022 1159.51 473.174C1156.83 474.31 1153.6 474.878 1149.81 474.878C1146.05 474.878 1142.78 474.302 1139.99 473.151C1137.22 471.999 1135.05 470.295 1133.49 468.037C1131.94 465.764 1131.13 462.954 1131.06 459.605H1140.58C1140.69 461.166 1141.13 462.469 1141.92 463.514C1142.72 464.545 1143.79 465.325 1145.13 465.855C1146.47 466.37 1148 466.628 1149.69 466.628C1151.36 466.628 1152.81 466.386 1154.03 465.901C1155.28 465.416 1156.24 464.742 1156.92 463.878C1157.6 463.014 1157.94 462.022 1157.94 460.901C1157.94 459.855 1157.63 458.977 1157.01 458.264C1156.41 457.552 1155.51 456.946 1154.33 456.446C1153.16 455.946 1151.73 455.492 1150.03 455.083L1144.97 453.81C1141.04 452.855 1137.94 451.363 1135.67 449.333C1133.4 447.302 1132.27 444.567 1132.28 441.128C1132.27 438.31 1133.02 435.848 1134.53 433.742C1136.06 431.636 1138.16 429.992 1140.83 428.81C1143.5 427.628 1146.53 427.037 1149.92 427.037C1153.38 427.037 1156.39 427.628 1158.97 428.81C1161.56 429.992 1163.57 431.636 1165.01 433.742C1166.45 435.848 1167.19 438.287 1167.24 441.06H1157.81Z" fill="black"/>
</g>
<g opacity="0.3">
<path d="M976.997 600.149C993.497 600.149 1008.4 602.12 1019.14 605.284C1024.52 606.868 1028.8 608.734 1031.71 610.762C1034.65 612.81 1035.99 614.873 1035.99 616.819C1035.99 618.766 1034.65 620.829 1031.71 622.877C1028.8 624.905 1024.52 626.771 1019.14 628.355C1008.4 631.519 993.497 633.49 976.997 633.49C960.498 633.49 945.598 631.519 934.855 628.355C929.478 626.771 925.198 624.905 922.286 622.877C919.345 620.829 918 618.766 918 616.819C918 614.873 919.345 612.81 922.286 610.762C925.198 608.734 929.478 606.868 934.855 605.284C945.598 602.12 960.498 600.149 976.997 600.149Z" stroke="#0292E3" stroke-width="2"/>
<path d="M991.533 608.459C999.783 622.749 1005.53 636.638 1008.16 647.523C1009.47 652.972 1010 657.611 1009.7 661.147C1009.39 664.718 1008.28 666.915 1006.59 667.888C1004.91 668.861 1002.45 668.728 999.205 667.204C995.993 665.696 992.237 662.924 988.177 659.058C980.065 651.337 970.909 639.419 962.659 625.13C954.409 610.84 948.666 596.951 946.034 586.066C944.717 580.617 944.194 575.978 944.494 572.442C944.797 568.871 945.911 566.674 947.597 565.701C949.283 564.728 951.742 564.861 954.986 566.385C958.198 567.893 961.954 570.665 966.015 574.531C974.126 582.252 983.283 594.17 991.533 608.459Z" stroke="#0292E3" stroke-width="2"/>
<path d="M991.533 625.541C983.283 639.83 974.126 651.748 966.015 659.469C961.954 663.335 958.198 666.107 954.986 667.615C951.742 669.139 949.283 669.272 947.597 668.299C945.911 667.326 944.797 665.129 944.494 661.558C944.194 658.022 944.717 653.383 946.034 647.934C948.666 637.049 954.409 623.16 962.659 608.87C970.909 594.581 980.065 582.663 988.177 574.942C992.237 571.076 995.993 568.304 999.205 566.796C1002.45 565.272 1004.91 565.139 1006.59 566.112C1008.28 567.085 1009.39 569.282 1009.7 572.853C1010 576.389 1009.47 581.028 1008.16 586.477C1005.53 597.362 999.783 611.251 991.533 625.541Z" stroke="#0292E3" stroke-width="2"/>
<circle cx="977.408" cy="616.819" r="6.16412" fill="#0292E3"/>
</g>
<path d="M1232.56 660.729V651.096C1230.41 651.363 1225.61 651.738 1223.67 651.096C1221.24 650.293 1218.01 649.089 1216.79 645.878C1215.58 642.667 1214.37 640.66 1211.94 639.054C1209.52 637.449 1209.11 636.245 1211.54 635.843C1213.96 635.442 1220.03 639.857 1221.24 643.068C1222.21 645.637 1224.88 646.012 1226.09 645.878H1230.54C1231.48 645.878 1233.37 645.476 1233.37 643.871C1233.37 642.265 1234.99 639.456 1235.8 638.252C1222.21 636.646 1216.93 628.217 1215.99 624.203C1212.1 612.965 1217.06 604.804 1220.03 602.128C1218.09 597.953 1218.68 591.826 1219.22 589.284C1226.34 588.962 1231.35 592.361 1232.97 594.1C1242.99 590.247 1253.05 592.762 1256.82 594.502C1262.32 589.685 1268.27 589.016 1270.56 589.284C1272.51 592.495 1271.37 599.184 1270.56 602.128C1277.03 610.557 1276.22 617.38 1273.39 627.013C1271.13 634.719 1259.51 637.716 1253.99 638.252C1256.58 639.536 1256.95 643.336 1256.82 645.075V660.729C1256.82 663.298 1260.05 663.137 1261.67 662.736C1279.86 653.905 1284.72 644.272 1286.33 641.864C1287.95 639.456 1298.87 618.584 1288.76 597.311C1278.65 576.038 1259.65 569.616 1243.88 570.018C1228.11 570.419 1218.01 577.242 1208.3 586.474C1198.6 595.706 1193.75 614.169 1199.41 633.435C1205.07 652.701 1225.69 661.532 1229.33 662.736C1232.24 663.699 1232.7 661.799 1232.56 660.729Z" fill="white" fill-opacity="0.2"/>
<defs>
<linearGradient id="paint0_linear_53_3" x1="1508.5" y1="-45.9999" x2="0.000106829" y2="823" gradientUnits="userSpaceOnUse">
<stop stop-color="#200000"/>
<stop offset="0.299988" stop-color="#04001A"/>
<stop offset="0.562595" stop-color="#151B00"/>
<stop offset="0.739583" stop-color="#021E00"/>
<stop offset="0.90625" stop-color="#002927"/>
</linearGradient>
</defs>
</svg>
